<?xml version="1.0" encoding="UTF-8" standalone="no"?>
<!-- Created with Inkscape (http://www.inkscape.org/) -->

<svg
   xmlns:dc="http://purl.org/dc/elements/1.1/"
   xmlns:cc="http://creativecommons.org/ns#"
   xmlns:rdf="http://www.w3.org/1999/02/22-rdf-syntax-ns#"
   xmlns:svg="http://www.w3.org/2000/svg"
   xmlns="http://www.w3.org/2000/svg"
   xmlns:sodipodi="http://sodipodi.sourceforge.net/DTD/sodipodi-0.dtd"
   xmlns:inkscape="http://www.inkscape.org/namespaces/inkscape"
   id="svg2"
   version="1.1"
   inkscape:version="0.91 r13725"
   width="676.58545"
   height="262.17667"
   viewBox="0 0 676.58545 262.17667"
   sodipodi:docname="auto.svg">
  <metadata
     id="metadata8">
    <rdf:RDF>
      <cc:Work
         rdf:about="">
        <dc:format>image/svg+xml</dc:format>
        <dc:type
           rdf:resource="http://purl.org/dc/dcmitype/StillImage" />
        <dc:title></dc:title>
        <cc:license
           rdf:resource="http://creativecommons.org/publicdomain/zero/1.0/" />
      </cc:Work>
      <cc:License
         rdf:about="http://creativecommons.org/publicdomain/zero/1.0/">
        <cc:permits
           rdf:resource="http://creativecommons.org/ns#Reproduction" />
        <cc:permits
           rdf:resource="http://creativecommons.org/ns#Distribution" />
        <cc:permits
           rdf:resource="http://creativecommons.org/ns#DerivativeWorks" />
      </cc:License>
    </rdf:RDF>
  </metadata>
  <defs
     id="defs6" />
  <sodipodi:namedview
     pagecolor="#ffffff"
     bordercolor="#666666"
     borderopacity="1"
     objecttolerance="10"
     gridtolerance="10"
     guidetolerance="10"
     inkscape:pageopacity="0"
     inkscape:pageshadow="2"
     inkscape:window-width="1193"
     inkscape:window-height="695"
     id="namedview4"
     showgrid="false"
     inkscape:showpageshadow="false"
     fit-margin-top="0"
     fit-margin-left="0"
     fit-margin-right="0"
     fit-margin-bottom="0"
     inkscape:zoom="1.1977405"
     inkscape:cx="428.23343"
     inkscape:cy="135.45192"
     inkscape:window-x="461"
     inkscape:window-y="268"
     inkscape:window-maximized="0"
     inkscape:current-layer="svg2" />
  <path
     style="fill:#000000"
     d="m 1.0567404,261.18339 c -2.92798,-2.92798 0.40871,-5.82196 7.7812496,-6.74884 2.57813,-0.32412 7.21875,-1.40391 10.3125,-2.39953 5.65748,-1.82065 22.05244,-8.18532 22.6664,-8.79928 0.18114,-0.18113 -0.78,-2.75243 -2.13584,-5.71399 -1.92689,-4.20889 -2.4668,-6.8501 -2.47261,-12.09588 -0.0193,-17.41323 12.76412,-33.99771 47.56705,-61.71088 9.22567,-7.34628 33.38343,-23.84897 48.78035,-33.32289 14.15355,-8.70885 28.52027,-17.226 38.40715,-22.76924 23.38128,-13.109097 63.02847,-32.692963 79.6875,-39.361903 4.125,-1.65132 8.23849,-3.38864 9.14107,-3.86071 0.90259,-0.47206 4.48853,-1.95724 7.96875,-3.30039 3.48023,-1.34315 8.43705,-3.26351 11.01518,-4.26748 17.88031,-6.96286 60.81176,-21.13219 77.8125,-25.68165 4.64062,-1.24185 13.92187,-3.7551 20.625,-5.58501 6.70312,-1.8299 15.98437,-4.20567 20.625,-5.27949 4.64062,-1.07382 10.75781,-2.49538 13.59375,-3.15902 19.69418,-4.60865 34.84779,-7.5308601 60.9375,-11.7511201 45.56095,-7.3699103 116.52685,-7.1366403 164.53125,0.54082 22.6635,3.62462 36.5895,11.1358201 38.5173,20.7748801 0.4939,2.46946 0.057,3.26277 -3.5078,6.37299 -8.2128,7.16494 -36.9566,18.80552 -75.322,30.50368 -7.2187,2.2011 -17.3437,5.36789 -22.5,7.03731 -5.1562,1.66942 -14.4375,4.6062 -20.625,6.52616 -26.59805,8.193174 -55.43031,17.077186 -77.8125,24.423133 -5.67187,1.86454 -12.42187,3.84096 -15,4.39205 -6.37079,2.49159 -13.36521,4.46982 -19.21875,6.35249 -2.83594,0.94603 -9.58594,3.06151 -15,4.70105 -5.41406,1.63956 -12.44695,3.99672 -15.62865,5.23812 -3.18169,1.24142 -6.10708,2.25712 -6.50088,2.25712 -33.38654,11.39107 -64.6285,20.09611 -98.33922,31.89622 -1.54687,0.54719 -19.47656,6.51366 -39.84375,13.25884 -108.73663,36.01126 -136.06223,45.11266 -142.03125,47.30668 -3.60937,1.32669 -9.30469,3.39471 -12.65625,4.5956 -18.12589,6.49464 -27.4135,10.02962 -53.2755,20.27729 -7.73862,3.0664 -7.78895,3.1078 -5.76667,4.74534 12.74196,10.31782 62.31527,5.39336 119.15968,-11.83695 16.21433,-4.91479 20.73781,-6.80158 24.94966,-10.40677 2.10355,-1.80056 4.18879,-3.27375 4.63388,-3.27375 0.44509,0 2.27646,-1.19607 4.06973,-2.65792 4.00935,-3.26842 14.77108,-9.53795 21.07297,-12.27662 2.57813,-1.12041 6.20526,-2.84998 8.0603,-3.84349 4.73601,-2.5365 22.99385,-9.8441 34.09582,-13.64666 11.25427,-3.85473 20.39997,-4.43202 22.02778,-1.39042 0.73515,1.37364 0.60224,2.17629 -0.55139,3.32992 -4.22601,4.22601 -46.51232,23.308 -73.94501,33.36819 -2.57812,0.94546 -8.27344,3.03923 -12.65625,4.65281 -8.18241,3.01245 -15,8.12982 -15,11.25915 0,3.15873 3.34472,4.85144 9.56393,4.84017 6.86865,-0.0125 15.1911,-2.08916 32.15482,-8.02355 14.40931,-5.04079 41.51108,-15.65008 50.63908,-19.82321 1.55461,-0.71075 4.02892,-1.74939 5.49844,-2.3081 1.46953,-0.55872 7.16271,-3.72896 12.65152,-7.04499 13.53139,-8.17488 18.31111,-10.23636 20.73107,-8.94124 1.03738,0.55518 1.88614,1.78973 1.88614,2.74343 0,1.68962 -1.0161,2.25458 -24.84375,13.81331 -4.87898,2.36679 -10.55602,6.5252 -9.80711,7.18368 0.76281,0.67072 18.53922,-7.4803 29.8144,-13.67079 8.81827,-4.84156 11.24722,-5.80658 12.57084,-4.99436 0.90234,0.55369 1.64062,1.47596 1.64062,2.04947 0,0.57353 -2.93657,3.3197 -6.52571,6.10262 -3.58916,2.78292 -6.54228,5.36531 -6.5625,5.73865 -0.0202,0.37334 2.12613,-0.59651 4.76969,-2.1552 5.56393,-3.28062 7.73571,-3.23607 8.13235,0.16677 0.24757,2.12399 -0.27508,2.63361 -4.21875,4.1137 -2.47573,0.92915 -6.91508,2.89319 -9.86522,4.36452 -2.95014,1.47134 -6.62671,2.67516 -8.17014,2.67516 -3.3596,0 -5.08466,-2.4426 -3.59942,-5.09658 0.77991,-1.39362 0.7136,-1.65219 -0.31387,-1.22389 -0.71647,0.29867 -5.2752,2.28612 -10.13049,4.41655 -11.56863,5.07614 -14.59743,4.94384 -17.59467,-0.76856 -0.26636,-0.50765 -9.99794,3.06201 -21.39002,7.84612 -5.67187,2.38192 -15.58594,6.16132 -22.03125,8.39868 -6.44531,2.23736 -13.45082,4.6993 -15.5678,5.47098 -7.43446,2.70997 -19.17152,4.60377 -24.44729,3.9446 -7.11723,-0.88923 -10.07647,-3.60641 -10.11321,-9.28594 -0.0299,-4.62329 -0.53832,-4.9776 -4.81136,-3.353 -11.38245,4.3276 -46.41153,13.0726 -64.12284,16.00825 -33.14989,5.49461 -52.23062,4.72839 -64.37587,-2.5851 l -5.34633,-3.21939 -12.71702,5.1328 C 8.74979,262.07802 3.4287004,263.55534 1.0567404,261.18339 Z M 55.31698,238.29034 c 16.61045,-6.77424 70.67308,-26.22524 89.92726,-32.35458 4.89844,-1.55937 10.38281,-3.3755 12.1875,-4.03585 4.51249,-1.65115 7.58036,-2.69247 24.84375,-8.43264 14.37675,-4.78035 23.80786,-7.85725 82.5,-26.91553 14.4375,-4.68808 27.09375,-8.86088 28.125,-9.27286 1.03125,-0.41199 9.67969,-3.27939 19.21875,-6.372 60.39908,-19.78494 128.08313,-41.70551 183.28125,-58.740673 17.16368,-5.35837 21.36757,-6.65048 52.0313,-15.99245 87.8535,-26.76537 117.0614,-37.76984 123.089,-46.37544 2.9571,-4.22179 -2.2349,-10.80613 -11.7305,-14.87644 -15.4748,-6.6332301 -63.3639,-11.6788101 -110.421,-11.6338801 -36.39923,0.0348 -63.17147,2.72799 -106.87505,10.7514701 -24.53408,4.50418 -68.00285,15.25708 -90,22.26338 -7.73079,2.46233 -10.10718,3.18432 -18.75,5.69662 -3.86719,1.12412 -8.08594,2.4823 -9.375,3.01818 -1.28906,0.53588 -6.35156,2.33708 -11.25,4.00268 -14.10346,4.79553 -35.72748,12.70564 -40.02669,14.64183 -2.16312,0.97418 -4.20178,1.77124 -4.53036,1.77124 -2.75097,0 -59.25524,26.48555 -75.44295,35.362763 -2.83594,1.55521 -9.92236,5.43545 -15.74761,8.62274 -5.82524,3.18731 -14.77088,8.3054 -19.87919,11.37355 -5.10831,3.06814 -9.55673,5.57844 -9.88537,5.57844 -0.32864,0 -1.71894,0.86654 -3.08956,1.92564 -1.37061,1.05912 -7.9764,5.43947 -14.67952,9.73413 -14.17112,9.07936 -25.41624,16.70119 -30.516827,20.68398 -1.98103,1.54687 -5.628273,4.28398 -8.105013,6.08245 -14.42224,10.47268 -36.04477,31.41485 -41.92281,40.60371 -3.4299,5.3618 -7.1116,15.04542 -7.1116,18.70496 0,3.40972 2.34084,11.5619 4.0837,14.22183 1.9676,3.00294 2.60275,3.00059 10.05154,-0.0372 z m 164.57753,-20.13041 c 29.17657,-11.45742 62.9421,-26.93782 60.58665,-27.777 -4.06357,-1.44772 -49.81849,17.84777 -64.92442,27.37954 -6.39216,4.03342 -5.19954,4.1427 4.33777,0.39746 z"
     id="path3338"
     inkscape:connector-curvature="0"
     sodipodi:nodetypes="ssscsssssscssssssssscssccccssccssssssssssssssssssssssssscscsscsssssscsssssssssscsscsssssccssssssssssssssscssssssccssss" />
</svg>
